<svg version="1.1" fill="currentColor" xmlns="http://www.w3.org/2000/svg" xmlns:xlink="http://www.w3.org/1999/xlink" x="0px" y="0px" viewBox="0 0 512 512" style="enable-background:new 0 0 512 512;" xml:space="preserve">
<g>
	<g>
		<path d="M461.842,126.916l-76.285-54.789c-5.882-12.659-13.73-23.926-23.455-33.55c-2.957-2.923-7.724-2.901-10.648,0.056
			c-2.925,2.955-2.9,7.722,0.055,10.648c21.155,20.936,31.881,49.771,31.881,85.701c0,9.194-1.117,18.314-3.301,27.186
			c-2.013-0.392-4.09-0.602-6.216-0.602c-5.091,0-10.006,1.196-14.424,3.381v-20.674c0-2.93-0.295-5.842-0.874-8.691
			c2.706-2.386,5.227-5.023,7.515-7.916c2.579-3.262,2.026-7.997-1.236-10.575c-3.262-2.578-7.996-2.026-10.576,1.236
			c-8.638,10.924-21.566,17.189-35.472,17.189h-38.715c-4.158,0-7.529,3.37-7.529,7.529v6.495
			c-4.049-1.705-7.273-5.044-9.818-10.149c-1.558-3.126-5.062-4.769-8.464-3.971c-3.401,0.801-5.805,3.835-5.805,7.33v6.786
			c-15.956-6.787-16.252-38.205-15.596-51.792c0.201-4.154-3.005-7.683-7.158-7.884c-4.156-0.198-7.684,3.004-7.884,7.158
			c-0.063,1.311-0.109,2.601-0.144,3.879c-35.533,0.057-64.478,28.667-65.111,64.065c-4.427-2.196-9.356-3.397-14.454-3.397
			c-2.126,0-4.202,0.211-6.216,0.602c-2.184-8.871-3.301-17.991-3.301-27.186c0-38.265,12.763-69.512,36.909-90.364
			C187.911,25.281,219.2,15.059,256,15.059c25.842,0,49.754,5.274,69.151,15.251c3.699,1.903,8.238,0.446,10.14-3.252
			c1.902-3.698,0.446-8.237-3.252-10.141C310.52,5.85,284.227,0,256,0c-40.465,0-75.157,11.487-100.324,33.221
			c-12.461,10.761-22.256,23.857-29.258,38.924l-76.26,54.77c-2.823,2.028-3.891,5.723-2.586,8.944
			c0.704,1.735,16.198,39.125,51.212,59.987c-13.12,38.504-17.24,93.441,31.569,144.513c1.595,1.67,3.867,2.503,6.167,2.293
			c2.298-0.223,4.368-1.486,5.614-3.429l8.292-12.926c3.806,6.112,9.675,12.788,18.306,18.824c-2.375,1.885-4.675,3.858-6.92,5.888
			c-0.032,0.024-0.066,0.043-0.098,0.068c-0.291,0.226-0.553,0.474-0.801,0.731c-24.775,22.784-41.24,54.23-44.819,89.062
			c-0.425,4.136,2.584,7.835,6.72,8.26c0.262,0.026,0.522,0.04,0.779,0.04c3.812,0,7.083-2.886,7.481-6.76
			c2.933-28.552,15.58-54.544,34.749-74.354c8.905,9.725,25.98,25.275,54.216,39.817c37.635,19.381,82.897,30.885,134.876,34.338
			c0.577,0.142,1.178,0.225,1.799,0.225c0.283,0,0.562-0.019,0.836-0.049c7.673,0.468,15.494,0.759,23.454,0.877
			c0.385,4.003,0.587,8.052,0.587,12.142v49.065c0,4.159,3.371,7.529,7.529,7.529c4.158,0,7.529-3.37,7.529-7.529v-49.065
			c0-44.137-20.412-84.308-53.301-110.342c9.298-6.509,14.92-13.432,18.213-18.781l8.302,12.942
			c1.247,1.944,3.316,3.207,5.614,3.429c2.299,0.213,4.572-0.623,6.166-2.293c14.535-15.208,25.274-31.858,31.92-49.487
			c1.467-3.891-0.499-8.234-4.39-9.701c-3.889-1.472-8.235,0.497-9.702,4.389c-4.91,13.025-12.382,25.51-22.266,37.22
			l-10.793-16.824c-1.742-2.716-5.01-4.125-8.141-3.349c-3.116,0.774-5.386,3.331-5.674,6.525
			c-0.184,1.169-2.763,15.062-22.568,26.595c-11.027-6.812-23.129-12.172-36.08-15.787v-5.937
			c13.294-6.508,25.459-16.476,35.783-29.546c13.805-17.476,23.14-39.05,27.282-62.505c5.008,3.035,10.811,4.708,16.858,4.708
			c11.956,0,22.421-6.484,28.079-16.117c3.928,14.608,5.443,28.966,4.499,42.849c-0.282,4.149,2.852,7.74,7.001,8.022
			c0.174,0.012,0.346,0.018,0.519,0.018c3.925,0,7.234-3.044,7.504-7.018c1.291-18.991-1.5-38.663-8.275-58.56
			c35.025-20.86,50.525-58.261,51.228-59.996C465.733,132.639,464.665,128.943,461.842,126.916z M364.244,391.601
			c6.612,11.232,11.504,23.544,14.377,36.552c-4.896-0.097-9.687-0.265-14.377-0.495V391.601z M138.128,176.624
			c5.772,0,11.151,2.839,14.423,7.6v9.704c0,3.249,0.097,6.48,0.287,9.688c-0.067,0.09-0.14,0.176-0.204,0.271
			c-3.264,4.832-8.688,7.717-14.507,7.717c-9.644,0-17.489-7.846-17.489-17.49C120.638,184.471,128.484,176.624,138.128,176.624z
			 M64.039,135.487l53.831-38.662c-2.505,10.406-3.927,21.486-4.244,33.158l-15.783,5.273c-3.944,1.318-6.074,5.584-4.756,9.527
			c1.053,3.152,3.99,5.145,7.14,5.145c0.791,0,1.595-0.125,2.386-0.391l11.401-3.809c0.643,7.72,1.981,15.354,3.999,22.822
			c-4.83,3.809-8.557,8.951-10.623,14.87C83.496,169.508,69.406,145.957,64.039,135.487z M181.317,362.433
			c-1.678-1.653-3.14-3.181-4.399-4.558c1.442-1.173,2.905-2.319,4.399-3.428V362.433z M184.59,334.244
			c-0.855,0.506-1.717,1.004-2.561,1.527c-19.865-11.543-22.446-25.467-22.63-26.637c-0.287-3.193-2.558-5.751-5.674-6.524
			c-3.132-0.783-6.4,0.631-8.141,3.348l-10.793,16.825c-33.191-39.327-33.238-80.541-24.744-112.236
			c5.658,9.633,16.123,16.117,28.079,16.117c6.04,0,11.847-1.673,16.857-4.706c4.141,23.455,13.477,45.027,27.282,62.503
			c10.324,13.07,22.488,23.038,35.783,29.546v5.958c-11.59,3.242-22.542,7.912-32.67,13.811
			C185.107,333.916,184.843,334.072,184.59,334.244z M330.683,373.438v-19.1c6.735,4.975,12.928,10.595,18.501,16.762v55.583
			c-46.855-3.826-82.649-14.148-109.433-26.019h63.706C318.471,400.663,330.683,388.449,330.683,373.438z M293.952,343.01v-7.361
			c7.593,2.394,14.836,5.469,21.672,9.145v28.643c0,6.709-5.458,12.167-12.167,12.167h-92.283
			c-5.565-3.472-10.488-6.905-14.797-10.187v-30.55c6.853-3.706,14.098-6.796,21.672-9.194v7.337c0,4.159,3.371,7.529,7.529,7.529
			s7.529-3.37,7.529-7.529v-23.258c7.422,2.07,15.087,3.135,22.893,3.135c7.806,0,15.471-1.065,22.893-3.135v23.258
			c0,4.159,3.371,7.529,7.529,7.529C290.58,350.539,293.952,347.169,293.952,343.01z M344.391,193.928
			c-0.001,62.805-39.653,113.9-88.391,113.9c-48.739,0-88.39-51.096-88.39-113.9v-27.787c0-27.673,22.514-50.187,50.187-50.187
			h0.194c1.946,27.058,11.754,44.143,28.4,48.773c1.205,0.335,2.427,0.5,3.638,0.5c2.903,0,5.743-0.946,8.136-2.765
			c0.941-0.714,1.77-1.53,2.478-2.428c2.956,2.124,6.237,3.693,9.834,4.693c4.09,1.139,8.384,0.313,11.775-2.265
			c3.41-2.592,5.367-6.533,5.367-10.812v-1.075h31.185c9.008,0,17.701-1.987,25.586-5.683V193.928z M373.873,211.603
			c-5.859,0-11.302-2.917-14.563-7.806c-0.046-0.069-0.099-0.13-0.147-0.198c0.189-3.203,0.285-6.428,0.285-9.672v-9.694
			c3.274-4.768,8.645-7.611,14.424-7.611c9.644,0,17.489,7.846,17.489,17.49C391.363,203.758,383.517,211.603,373.873,211.603z
			 M404.609,183.421c-2.065-5.919-5.793-11.061-10.623-14.87c2.018-7.468,3.355-15.102,3.999-22.822l11.401,3.809
			c0.792,0.265,1.595,0.391,2.386,0.391c3.15,0,6.087-1.993,7.14-5.145c1.318-3.944-0.811-8.21-4.756-9.527l-15.784-5.274
			c-0.318-11.657-1.748-22.749-4.266-33.175l53.854,38.678C442.59,145.963,428.5,169.511,404.609,183.421z"></path>
	</g>
</g>
<g>
	<g>
		<path d="M122.879,468.422c-4.158,0-7.529,3.37-7.529,7.529v28.519c0,4.159,3.371,7.529,7.529,7.529s7.529-3.37,7.529-7.529
			v-28.519C130.408,471.793,127.037,468.422,122.879,468.422z"></path>
	</g>
</g>
<g>
	<g>
		<path d="M278.207,239.179c-4.102-0.676-7.976,2.109-8.649,6.212c-1.454,8.866-7.156,15.301-13.558,15.301
			c-6.402,0-12.104-6.435-13.558-15.301c-0.673-4.104-4.541-6.881-8.649-6.212c-4.103,0.674-6.884,4.545-6.212,8.649
			c2.653,16.179,14.605,27.922,28.419,27.922c13.814,0,25.766-11.743,28.419-27.922
			C285.092,243.725,282.311,239.853,278.207,239.179z"></path>
	</g>
</g>
<g>
	<g>
		<path d="M298.11,92.912c-4.158,0-7.529,3.37-7.529,7.529v8.843c0,4.159,3.371,7.529,7.529,7.529c4.158,0,7.529-3.37,7.529-7.529
			v-8.843C305.639,96.282,302.268,92.912,298.11,92.912z"></path>
	</g>
</g>
<g>
	<g>
		<path d="M318.741,92.912c-4.158,0-7.529,3.37-7.529,7.529v8.843c0,4.159,3.371,7.529,7.529,7.529s7.529-3.37,7.529-7.529v-8.843
			C326.27,96.282,322.899,92.912,318.741,92.912z"></path>
	</g>
</g>
<g>
	<g>
		<path d="M219.742,441.216c-1.485-4.57-5.361-7.837-10.116-8.528l-7.378-1.072l-3.299-6.684c-2.126-4.309-6.432-6.985-11.237-6.985
			c-4.805,0-9.111,2.677-11.237,6.985l-3.299,6.684l-7.378,1.072c-4.755,0.691-8.631,3.958-10.116,8.528
			c-1.485,4.57-0.27,9.491,3.171,12.845l5.338,5.203l-1.26,7.349c-0.812,4.736,1.098,9.431,4.984,12.255
			c3.887,2.823,8.943,3.19,13.197,0.954l6.599-3.469l6.6,3.469c1.849,0.973,3.85,1.453,5.842,1.452c2.587,0,5.158-0.811,7.354-2.405
			c3.886-2.824,5.796-7.519,4.984-12.255l-1.26-7.349l5.338-5.203C220.011,450.707,221.227,445.786,219.742,441.216z
			 M197.887,451.244c-1.775,1.731-2.585,4.223-2.165,6.665l1.063,6.201l-5.568-2.927c-2.194-1.153-4.814-1.153-7.006,0l-5.568,2.927
			l1.063-6.201c0.419-2.443-0.391-4.934-2.165-6.665l-4.505-4.39l6.225-0.905c2.453-0.355,4.572-1.896,5.669-4.119l2.784-5.641
			l2.784,5.641c1.097,2.223,3.217,3.763,5.669,4.119l6.225,0.905L197.887,451.244z"></path>
	</g>
</g>
<g>
	<g>
		<path d="M326.672,195.406c-4.592-8.11-13.083-12.951-22.715-12.951c-9.186,0-17.443,4.328-23.249,12.186
			c-2.472,3.344-1.764,8.059,1.581,10.53c3.345,2.47,8.059,1.764,10.53-1.581c2.979-4.032,6.726-6.076,11.139-6.076
			c4.258,0,7.669,1.885,9.608,5.31c1.385,2.448,3.934,3.822,6.56,3.822c1.256,0,2.531-0.314,3.702-0.978
			C327.447,203.619,328.72,199.025,326.672,195.406z"></path>
	</g>
</g>
<g>
	<g>
		<path d="M231.292,194.641c-5.807-7.858-14.063-12.186-23.249-12.186c-9.632,0-18.123,4.841-22.713,12.951
			c-2.049,3.618-0.775,8.213,2.844,10.262c1.172,0.663,2.446,0.978,3.703,0.978c2.624,0,5.174-1.374,6.56-3.822
			c1.939-3.424,5.35-5.31,9.608-5.31c4.412,0,8.159,2.044,11.139,6.076c2.472,3.344,7.186,4.051,10.53,1.581
			C233.056,202.699,233.764,197.985,231.292,194.641z"></path>
	</g>
</g>
<g>
</g>
<g>
</g>
<g>
</g>
<g>
</g>
<g>
</g>
<g>
</g>
<g>
</g>
<g>
</g>
<g>
</g>
<g>
</g>
<g>
</g>
<g>
</g>
<g>
</g>
<g>
</g>
<g>
</g>
</svg>